#!OML:ASF E:\pregnant2\Project 1\Capture day 1\Session 1\pregnant2.ASF
:FULLY-SPECIFIED
:DEGREES
947
root 4.07532 17.1478 44.6459 33.2973 18.3726 -0.816325
lowerback -24.819 -3.13267 -1.35828
upperback -15.5258 -3.55299 2.72051
thorax -3.19906 -1.45717 2.95244
lowerneck -11.901 -1.79318 -4.01906
upperneck 50.6118 -2.08958 1.92059
head 24.4159 -1.22935 1.51996
rclavicle -1.7344e-014 -2.60408e-014
rhumerus 76.7356 -30.1046 0.993854
rradius 32.8192
rwrist 54.3203
rhand -38.5024 -9.30301
rfingers 7.12502
rthumb -11.5238 -38.9662
lclavicle -1.7344e-014 -2.60408e-014
lhumerus 65.8543 31.7685 -5.405
lradius 37.763
lwrist -48.236
lhand -45.4206 13.2114
lfingers 7.12502
lthumb -18.1883 42.381
rfemur -39.2613 12.0154 15.5261
rtibia 19.778
rfoot -13.322 -18.3343
rtoes -1.66556
lfemur -42.6607 -16.0586 -12.1418
ltibia 20.6223
lfoot -5.67975 17.0905
ltoes -17.9538
948
root 4.07356 17.1487 44.6466 33.3102 18.3642 -0.807905
lowerback -24.8123 -3.1435 -1.37813
upperback -15.5177 -3.56388 2.73366
thorax -3.19039 -1.46099 2.97546
lowerneck -11.8912 -1.80154 -4.03746
upperneck 50.6417 -2.08594 1.89774
head 24.4449 -1.23513 1.51197
rclavicle 3.88624e-014 1.07344e-014
rhumerus 76.8518 -30.1226 0.742058
rradius 32.8102
rwrist 54.4904
rhand -38.5256 -9.06669
rfingers 7.12502
rthumb -11.5462 -38.7287
lclavicle 3.88624e-014 1.07344e-014
lhumerus 65.8618 31.8442 -5.36561
lradius 37.7189
lwrist -48.271
lhand -45.4942 14.1447
lfingers 7.12502
lthumb -18.2591 43.3078
rfemur -39.2691 12.0481 15.5007
rtibia 19.7625
rfoot -13.3055 -18.3658
rtoes -1.69276
lfemur -42.6599 -16.0378 -12.1638
ltibia 20.6361
lfoot -5.6931 17.0814
ltoes -18.0011
949
root 4.07181 17.1494 44.6472 33.3245 18.3539 -0.798973
lowerback -24.8052 -3.15467 -1.39813
upperback -15.5109 -3.5752 2.74688
thorax -3.1833 -1.46499 2.99861
lowerneck -11.8833 -1.80782 -4.05586
upperneck 50.6708 -2.07965 1.87686
head 24.4738 -1.23974 1.50568
rclavicle 1.75427e-014 2.56432e-014
rhumerus 76.9377 -30.153 0.572126
rradius 32.8028
rwrist 54.5907
rhand -38.5409 -8.89318
rfingers 7.12502
rthumb -11.561 -38.5543
lclavicle 1.75427e-014 2.56432e-014
lhumerus 65.851 31.9136 -5.35448
lradius 37.6818
lwrist -48.2877
lhand -45.5732 15.2467
lfingers 7.12502
lthumb -18.3351 44.4026
rfemur -39.2786 12.0712 15.4794
rtibia 19.7469
rfoot -13.2952 -18.3847
rtoes -1.6573
lfemur -42.6648 -16.0224 -12.1808
ltibia 20.6524
lfoot -5.70543 17.079
ltoes -18.0319
950
root 4.07007 17.15 44.6477 33.3399 18.3419 -0.789003
lowerback -24.7978 -3.16513 -1.41788
upperback -15.505 -3.58563 2.75875
thorax -3.17751 -1.46861 3.0204
lowerneck -11.8768 -1.81335 -4.07238
upperneck 50.6993 -2.07325 1.85694
head 24.5026 -1.24379 1.49959
rclavicle 1.49089e-014 -4.07509e-014
rhumerus 76.9757 -30.197 0.514611
rradius 32.7997
rwrist 54.5974
rhand -38.5116 -8.80372
rfingers 7.12502
rthumb -11.5327 -38.4664
lclavicle 1.49089e-014 -4.07509e-014
lhumerus 65.8333 31.9794 -5.35851
lradius 37.6463
lwrist -48.2971
lhand -45.648 16.4082
lfingers 7.12502
lthumb -18.4071 45.5573
rfemur -39.2914 12.0908 15.4582
rtibia 19.7346
rfoot -13.286 -18.3993
rtoes -1.62773
lfemur -42.6738 -16.0152 -12.1911
ltibia 20.6636
lfoot -5.7111 17.0846
ltoes -18.0538
951
root 4.06836 17.1504 44.6481 33.356 18.331 -0.78072
lowerback -24.7892 -3.17408 -1.43312
upperback -15.5016 -3.59489 2.7693
thorax -3.17567 -1.47193 3.03861
lowerneck -11.8649 -1.81938 -4.09054
upperneck 50.7262 -2.06955 1.84131
head 24.5276 -1.24866 1.49565
rclavicle 1.58034e-014 5.76476e-015
rhumerus 76.9919 -30.2528 0.528924
rradius 32.7883
rwrist 54.548
rhand -38.4662 -8.8173
rfingers 7.12502
rthumb -11.4889 -38.4825
lclavicle 1.58034e-014 5.76476e-015
lhumerus 65.7973 32.0374 -5.39732
lradius 37.6211
lwrist -48.276
lhand -45.6987 17.4232
lfingers 7.12502
lthumb -18.4559 46.5677
rfemur -39.3088 12.1053 15.4412
rtibia 19.7289
rfoot -13.2804 -18.4091
rtoes -1.61487
lfemur -42.6856 -16.0141 -12.1927
ltibia 20.666
lfoot -5.70628 17.0939
ltoes -18.0705
952
root 4.06667 17.1507 44.6484 33.3747 18.32 -0.772727
lowerback -24.7848 -3.18244 -1.4461
upperback -15.4994 -3.60371 2.77836
thorax -3.17344 -1.47524 3.05392
lowerneck -11.8493 -1.8256 -4.1096
upperneck 50.7517 -2.0674 1.8283
head 24.5497 -1.25398 1.49302
rclavicle -1.99282e-014 -5.96354e-016
rhumerus 77.0065 -30.3067 0.543431
rradius 32.773
rwrist 54.507
rhand -38.4215 -8.87919
rfingers 7.12502
rthumb -11.4458 -38.5468
lclavicle -1.99282e-014 -5.96354e-016
lhumerus 65.7399 32.0848 -5.47654
lradius 37.608
lwrist -48.2133
lhand -45.7229 18.3233
lfingers 7.12502
lthumb -18.4791 47.4656
rfemur -39.334 12.1482 15.4075
rtibia 19.7295
rfoot -13.2845 -18.4493
rtoes -1.59561
lfemur -42.7016 -16.0187 -12.1863
ltibia 20.6601
lfoot -5.69164 17.1076
ltoes -18.0758
953
root 4.065 17.1508 44.6488 33.3943 18.3081 -0.76305
lowerback -24.7804 -3.19083 -1.45918
upperback -15.4995 -3.61246 2.78594
thorax -3.17389 -1.4785 3.06778
lowerneck -11.8272 -1.83214 -4.1308
upperneck 50.7751 -2.06703 1.81846
head 24.5666 -1.26002 1.49217
rclavicle 1.3418e-014 3.43897e-014
rhumerus 77.0168 -30.3564 0.564009
rradius 32.7546
rwrist 54.4689
rhand -38.3661 -8.85996
rfingers 7.12502
rthumb -11.3923 -38.5305
lclavicle 1.3418e-014 3.43897e-014
lhumerus 65.6879 32.1294 -5.5521
lradius 37.5982
lwrist -48.1439
lhand -45.7346 19.0491
lfingers 7.12502
lthumb -18.4904 48.1903
rfemur -39.3615 12.1846 15.3752
rtibia 19.7346
rfoot -13.2881 -18.4824
rtoes -1.58353
lfemur -42.7148 -16.0244 -12.1813
ltibia 20.6479
lfoot -5.6755 17.1209
ltoes -18.0844
954
root 4.06331 17.151 44.6492 33.414 18.2976 -0.752636
lowerback -24.7788 -3.19984 -1.47201
upperback -15.4977 -3.62208 2.79281
thorax -3.1708 -1.48234 3.08037
lowerneck -11.8118 -1.83885 -4.15252
upperneck 50.7991 -2.06744 1.81049
head 24.5877 -1.26629 1.4924
rclavicle 3.39922e-014 -1.25234e-014
rhumerus 77.047 -30.4077 0.552711
rradius 32.7253
rwrist 54.467
rhand -38.3152 -8.82638
rfingers 7.12502
rthumb -11.3432 -38.4996
lclavicle 3.39922e-014 -1.25234e-014
lhumerus 65.6276 32.1747 -5.64269
lradius 37.5938
lwrist -48.0585
lhand -45.7488 19.6168
lfingers 7.12502
lthumb -18.5041 48.7567
rfemur -39.3889 12.2124 15.347
rtibia 19.7422
rfoot -13.2923 -18.5069
rtoes -1.57054
lfemur -42.7249 -16.0282 -12.1782
ltibia 20.6298
lfoot -5.65793 17.1293
ltoes -18.0917
955
root 4.06159 17.1512 44.6497 33.4297 18.2877 -0.741824
lowerback -24.7778 -3.20905 -1.48546
upperback -15.4931 -3.63188 2.79892
thorax -3.16437 -1.48635 3.09229
lowerneck -11.8029 -1.8449 -4.171
upperneck 50.8235 -2.06641 1.80025
head 24.612 -1.27163 1.49098
rclavicle -1.37658e-014 -8.74653e-015
rhumerus 77.0891 -30.4589 0.521463
rradius 32.6873
rwrist 54.4871
rhand -38.2556 -8.80448
rfingers 7.12502
rthumb -11.2858 -38.4809
lclavicle -1.37658e-014 -8.74653e-015
lhumerus 65.5816 32.2255 -5.71084
lradius 37.5844
lwrist -47.9926
lhand -45.7431 20.057
lfingers 7.12502
lthumb -18.4986 49.1974
rfemur -39.4107 12.2399 15.3201
rtibia 19.7492
rfoot -13.296 -18.5305
rtoes -1.55282
lfemur -42.7286 -16.0344 -12.1753
ltibia 20.6087
lfoot -5.63973 17.1392
ltoes -18.0963
956
root 4.05988 17.1515 44.6504 33.4413 18.2781 -0.730438
lowerback -24.7738 -3.21784 -1.4991
upperback -15.4878 -3.64118 2.80438
thorax -3.15838 -1.49014 3.10382
lowerneck -11.7969 -1.85028 -4.1916
upperneck 50.8489 -2.06412 1.79192
head 24.6389 -1.27675 1.49146
rclavicle 1.77415e-014 8.07066e-014
rhumerus 77.1122 -30.5093 0.521061
rradius 32.6522
rwrist 54.4861
rhand -38.2044 -8.82733
rfingers 7.12502
rthumb -11.2364 -38.5064
lclavicle 1.77415e-014 8.07066e-014
lhumerus 65.5592 32.2824 -5.74027
lradius 37.5653
lwrist -47.9612
lhand -45.7161 20.3388
lfingers 7.12502
lthumb -18.4726 49.4817
rfemur -39.4255 12.2762 15.2888
rtibia 19.7518
rfoot -13.2985 -18.5623
rtoes -1.5227
lfemur -42.7254 -16.0408 -12.1751
ltibia 20.5846
lfoot -5.62041 17.1484
ltoes -18.1008
957
root 4.05817 17.1519 44.6512 33.4488 18.2693 -0.720188
lowerback -24.7691 -3.22622 -1.51215
upperback -15.4805 -3.65012 2.80959
thorax -3.15062 -1.49387 3.11476
lowerneck -11.793 -1.85447 -4.20819
upperneck 50.8734 -2.05929 1.78009
head 24.6653 -1.28046 1.48961
rclavicle 4.60187e-014 4.77083e-015
rhumerus 77.1507 -30.5584 0.492219
rradius 32.609
rwrist 54.5063
rhand -38.1596 -8.85339
rfingers 7.12502
rthumb -11.1932 -38.5348
lclavicle 4.60187e-014 4.77083e-015
lhumerus 65.5641 32.3445 -5.72623
lradius 37.5363
lwrist -47.9676
lhand -45.6498 20.4733
lfingers 7.12502
lthumb -18.4089 49.6222
rfemur -39.4344 12.3488 15.2394
rtibia 19.7476
rfoot -13.3057 -18.6319
rtoes -1.47042
lfemur -42.7163 -16.0466 -12.1756
ltibia 20.5595
lfoot -5.60455 17.1575
ltoes -18.0982
958
root 4.0565 17.1524 44.652 33.452 18.2616 -0.711612
lowerback -24.7626 -3.23384 -1.52272
upperback -15.4728 -3.6586 2.8155
thorax -3.14329 -1.49752 3.12522
lowerneck -11.7858 -1.85758 -4.22687
upperneck 50.895 -2.05166 1.76792
head 24.6867 -1.28356 1.48849
rclavicle 3.72721e-015 2.0276e-014
rhumerus 77.1829 -30.605 0.473077
rradius 32.5671
rwrist 54.5121
rhand -38.1402 -8.94039
rfingers 7.12502
rthumb -11.1745 -38.6228
lclavicle 3.72721e-015 2.0276e-014
lhumerus 65.599 32.4101 -5.66364
lradius 37.4921
lwrist -48.0121
lhand -45.5642 20.504
lfingers 7.12502
lthumb -18.3265 49.6607
rfemur -39.4393 12.4737 15.1629
rtibia 19.7371
rfoot -13.3236 -18.7564
rtoes -1.38787
lfemur -42.703 -16.0529 -12.1753
ltibia 20.5349
lfoot -5.59104 17.1674
ltoes -18.0894
959
root 4.05494 17.153 44.6528 33.4512 18.2566 -0.707787
lowerback -24.7522 -3.23996 -1.52615
upperback -15.4684 -3.66649 2.82326
thorax -3.1419 -1.50116 3.13406
lowerneck -11.7664 -1.85977 -4.24828
upperneck 50.913 -2.04094 1.75383
head 24.698 -1.28621 1.48731
rclavicle 3.67752e-015 -8.15017e-015
rhumerus 77.2335 -30.6422 0.42435
rradius 32.5205
rwrist 54.533
rhand -38.1437 -9.02155
rfingers 7.12502
rthumb -11.1779 -38.7038
lclavicle 3.67752e-015 -8.15017e-015
lhumerus 65.6295 32.4631 -5.60737
lradius 37.4465
lwrist -48.0451
lhand -45.4698 20.498
lfingers 7.12502
lthumb -18.2357 49.6632
rfemur -39.4369 12.5744 15.1068
rtibia 19.723
rfoot -13.337 -18.855
rtoes -1.31458
lfemur -42.6887 -16.062 -12.1689
ltibia 20.5135
lfoot -5.57996 17.1804
ltoes -18.0875
